<svg xmlns="http://www.w3.org/2000/svg" xmlns:xlink="http://www.w3.org/1999/xlink" width="500" zoomAndPan="magnify" viewBox="0 0 375 374.999991" height="500" preserveAspectRatio="xMidYMid meet" version="1.0"><defs><clipPath id="id1"><path d="M 158 117 L 258 117 L 258 229 L 158 229 Z M 158 117 " clip-rule="nonzero"/></clipPath><clipPath id="id2"><path d="M 216.589844 117.257812 L 257.527344 145.914062 L 199.699219 228.53125 L 158.761719 199.878906 Z M 216.589844 117.257812 " clip-rule="nonzero"/></clipPath><clipPath id="id3"><path d="M 101 199 L 200 199 L 200 311 L 101 311 Z M 101 199 " clip-rule="nonzero"/></clipPath><clipPath id="id4"><path d="M 158.886719 199.699219 L 199.824219 228.351562 L 142 310.972656 L 101.0625 282.316406 Z M 158.886719 199.699219 " clip-rule="nonzero"/></clipPath><clipPath id="id5"><path d="M 59 170 L 159 170 L 159 283 L 59 283 Z M 59 170 " clip-rule="nonzero"/></clipPath><clipPath id="id6"><path d="M 117.667969 170.847656 L 158.605469 199.5 L 100.777344 282.121094 L 59.839844 253.46875 Z M 117.667969 170.847656 " clip-rule="nonzero"/></clipPath><clipPath id="id7"><path d="M 178 137 L 280 137 L 280 238 L 178 238 Z M 178 137 " clip-rule="nonzero"/></clipPath><clipPath id="id8"><path d="M 241.8125 257.730469 L 159.191406 199.902344 L 217.019531 117.285156 L 299.636719 175.109375 Z M 241.8125 257.730469 " clip-rule="nonzero"/></clipPath><clipPath id="id9"><path d="M 121 219 L 223 219 L 223 321 L 121 321 Z M 121 219 " clip-rule="nonzero"/></clipPath><clipPath id="id10"><path d="M 184.109375 340.167969 L 101.488281 282.34375 L 159.316406 199.722656 L 241.933594 257.550781 Z M 184.109375 340.167969 " clip-rule="nonzero"/></clipPath><clipPath id="id11"><path d="M 37 161 L 139 161 L 139 262 L 37 262 Z M 37 161 " clip-rule="nonzero"/></clipPath><clipPath id="id12"><path d="M 100.699219 281.789062 L 18.078125 223.960938 L 75.90625 141.34375 L 158.523438 199.167969 Z M 100.699219 281.789062 " clip-rule="nonzero"/></clipPath><clipPath id="id13"><path d="M 216 54 L 337 54 L 337 156 L 216 156 Z M 216 54 " clip-rule="nonzero"/></clipPath><clipPath id="id14"><path d="M 356.726562 92.515625 L 299.015625 174.964844 L 216.570312 117.257812 L 274.277344 34.808594 Z M 356.726562 92.515625 " clip-rule="nonzero"/></clipPath></defs><g clip-path="url(#id1)"><g clip-path="url(#id2)"><path fill="#0fbefe" d="M 216.589844 117.257812 L 257.527344 145.914062 L 199.699219 228.53125 L 158.761719 199.878906 L 216.589844 117.257812 " fill-opacity="1" fill-rule="nonzero"/></g></g><g clip-path="url(#id3)"><g clip-path="url(#id4)"><path fill="#f24d17" d="M 158.886719 199.699219 L 199.824219 228.351562 L 142 310.972656 L 101.0625 282.316406 L 158.886719 199.699219 " fill-opacity="1" fill-rule="nonzero"/></g></g><g clip-path="url(#id5)"><g clip-path="url(#id6)"><path fill="#ff7362" d="M 117.667969 170.847656 L 158.605469 199.5 L 100.777344 282.121094 L 59.839844 253.46875 L 117.667969 170.847656 " fill-opacity="1" fill-rule="nonzero"/></g></g><g clip-path="url(#id7)"><g clip-path="url(#id8)"><path fill="#0fbefe" d="M 200.5 228.816406 C 223.316406 244.785156 254.757812 239.234375 270.722656 216.421875 C 286.691406 193.605469 281.144531 162.164062 258.328125 146.199219 C 235.515625 130.230469 204.074219 135.777344 188.105469 158.59375 C 172.136719 181.40625 177.6875 212.847656 200.5 228.816406 " fill-opacity="1" fill-rule="nonzero"/></g></g><g clip-path="url(#id9)"><g clip-path="url(#id10)"><path fill="#f24d17" d="M 142.800781 311.257812 C 165.613281 327.226562 197.054688 321.675781 213.023438 298.859375 C 228.992188 276.046875 223.441406 244.605469 200.625 228.636719 C 177.8125 212.667969 146.371094 218.21875 130.402344 241.035156 C 114.433594 263.847656 119.984375 295.289062 142.800781 311.257812 " fill-opacity="1" fill-rule="nonzero"/></g></g><g clip-path="url(#id11)"><g clip-path="url(#id12)"><path fill="#ff7362" d="M 59.386719 252.875 C 82.203125 268.84375 113.640625 263.292969 129.609375 240.480469 C 145.578125 217.664062 140.03125 186.226562 117.214844 170.257812 C 94.402344 154.289062 62.960938 159.835938 46.992188 182.652344 C 31.023438 205.464844 36.574219 236.90625 59.386719 252.875 " fill-opacity="1" fill-rule="nonzero"/></g></g><g clip-path="url(#id13)"><g clip-path="url(#id14)"><path fill="#00d083" d="M 327.875 133.738281 C 343.808594 110.972656 338.269531 79.601562 315.503906 63.664062 C 292.738281 47.730469 261.367188 53.269531 245.433594 76.035156 L 216.582031 117.253906 L 257.800781 146.105469 C 280.5625 162.046875 311.9375 156.503906 327.875 133.738281 Z M 327.875 133.738281 " fill-opacity="1" fill-rule="nonzero"/></g></g></svg>